<?xml version="1.0" encoding="utf-8"?>
<!-- Generator: Adobe Illustrator 27.5.0, SVG Export Plug-In . SVG Version: 6.00 Build 0)  -->
<svg version="1.1" id="Layer_1" xmlns="http://www.w3.org/2000/svg" xmlns:xlink="http://www.w3.org/1999/xlink" x="0px" y="0px"
	 viewBox="0 0 4000 4000" style="enable-background:new 0 0 4000 4000;" xml:space="preserve">
<g>
	<rect x="0" style="fill-rule:evenodd;clip-rule:evenodd;fill:#FFFFFF;" width="3999.999" height="4000"/>
	<path style="fill-rule:evenodd;clip-rule:evenodd;" d="M2717.476,2203.011h-27.736h-59.515h-166.638H1020.332l-143.707,248.905
		h1840.851c220.27,0,419.135-96.312,556.563-248.905c119.73-132.935,192.831-308.593,192.831-500.495
		c0-191.895-73.101-367.553-192.831-500.49c-137.428-152.593-336.293-248.905-556.563-248.905h-87.252h-771.296l143.706,248.905
		h71.027h556.563h87.252c275.271,0,500.493,225.218,500.493,500.49C3217.969,1977.794,2992.747,2203.011,2717.476,2203.011"/>
	<path style="fill-rule:evenodd;clip-rule:evenodd;" d="M1105.555,2553.212L820.536,3046.88H533.127l285.018-493.668H1105.555z
		 M2378.367,2553.212l285.018,493.668h287.41l-285.02-493.668H2378.367z M1741.961,1450.933l-375.733,650.781H1078.82
		l663.142-1148.593l663.141,1148.593h-287.41L1741.961,1450.933z"/>
</g>
</svg>
